<?xml version="1.0" encoding="UTF-8"?><svg id="a" xmlns="http://www.w3.org/2000/svg" viewBox="0 0 1500 1500"><defs><style>.b{fill:#12abbb;}</style></defs><g><polygon class="b" points="442.13 932.72 289.11 846.45 289.11 671.76 442.13 758.02 442.13 932.72"/><polygon class="b" points="456 932.72 609.02 846.45 609.02 671.76 456 758.02 456 932.72"/><polygon class="b" points="602.95 655.72 449.06 744.15 295.17 655.72 449.06 567.28 602.95 655.72"/></g><g><path class="b" d="M837.45,923.43c-87.15,29.93-151.7-32.87-159.1-40.27l20.79-24.98s33.99,32.06,73.5,38.96,84.53-11.38,97.53-55.59c12.67-43.07-11.53-73.42-41.34-85.54-31.4-12.77-68.87-6.14-68.87-6.14l-11.34-23.75,108.91-124.65h-164.3v-32.83h211.5v26.16l-107.37,120.61s75.1,.83,102.84,60.21c27.74,59.39,1.63,125.71-62.75,147.82Z"/><polygon class="b" points="1173.18 568.62 1173.18 731.19 961.21 731.19 961.21 568.62 923.49 568.62 923.49 931.46 961.21 931.46 961.21 768.9 1173.18 768.9 1173.18 931.46 1210.89 931.46 1210.89 568.62 1173.18 568.62"/></g></svg>