<?xml version="1.0" encoding="UTF-8"?><svg xmlns="http://www.w3.org/2000/svg" viewBox="0 0 305.54 70.09"><defs><style>.d{fill:#fff;}.e{fill:#ff2b5a;}.f{fill:#282828;}</style></defs><g id="a"/><g id="b"><g id="c"><g><path class="f" d="M84.34,39.36c0,18.05-27.51,30.74-42.17,30.74S0,57.4,0,39.36,5.21,6.67,42.17,6.67s42.17,14.63,42.17,32.68Z"/><path class="f" d="M7.94,22.57S12.73,1.21,14.99,.05s15.35,16.68,15.35,16.68c0,0-.87,20.91-7.05,22.52-6.19,1.61-15.35-16.68-15.35-16.68Z"/><path class="f" d="M75.66,22.57S70.87,1.21,68.61,.05s-15.35,16.68-15.35,16.68c0,0,.87,20.91,7.05,22.52,6.19,1.61,15.35-16.68,15.35-16.68Z"/><path class="d" d="M25.81,37.63c-9.18-3.57-15.65-8.72-17.87-6.63-3.29,3.09-.07,16.74,9.11,20.3,9.18,3.57,18.57,1.15,20.68-5.52,2.11-6.67-2.74-4.58-11.92-8.15Z"/><path class="d" d="M46.1,61.3l-2.32,2.57c-.89,.99-2.34,.99-3.23,0l-2.32-2.57c-.5-.55-.15-1.5,.56-1.5h6.75c.71,0,1.06,.95,.56,1.5Z"/><path class="e" d="M66.19,62.99s-2.36-42.69-23.55-56.32h-2.26s-.31-1.09,2.01-1.07c.78,0,2.25-.05,2.75,0,1.01,.1,2.76,1.18,2.76,1.18,0,0,18.67,9.81,21.72,54.12,0,0,.17,1.02-.49,1.54s-1.47,.86-2.23,1.28c-1.47,.82-2.17,.06-2.17,.06l1.46-.79Z"/><path class="e" d="M56.13,33.88c9.18-3.57,16.95-8.95,19.53-5.29,5.07,7.19,.81,18.05-8.37,21.62-9.18,3.57-17.65,2.9-20.24-3.6-1.63-4.08-.1-9.17,9.08-12.73Z"/><path class="f" d="M24.69,36.58c-.2-6.94-1.61-12.55-3.16-12.32s-2.62,6.24-2.43,13.18c.2,6.94,1.68,11.57,3.22,11.33s2.56-5.25,2.36-12.19Z"/><g><path class="f" d="M114.24,43.25v8.33h-6.67V19.79h6.67v17.75l1.87-.83c2.08-.92,4.25-2.83,4.25-7.12v-.96h6.67v.71c0,3.71-1.21,7.87-5.25,10.54l2.04,3.42c1,1.67,2.79,2.37,5.04,2.42v6.04c-.71,.12-1.42,.17-2.12,.17-3.58,0-6.62-1.46-8.87-5.46l-2.17-3.87-1.46,.67Z"/><path class="f" d="M141.2,52.08c-6.79,0-11.75-3.79-11.75-11.96s4.96-12,11.75-12,11.79,3.92,11.79,12-5,11.96-11.79,11.96Zm.04-18.29c-3.58,0-4.96,2.25-4.96,6.33s1.38,6.29,4.96,6.29,4.92-2.21,4.92-6.29-1.33-6.33-4.92-6.33Z"/><path class="f" d="M169.11,35.33c-2.75,.46-5.04,1.25-7.83,2.21v14.04h-6.67V28.63h6.29v3.58c2.29-1.5,4.79-3.62,8.21-3.71v6.83Z"/><path class="f" d="M188.1,28.75l-.21,5.67c-1.62-.29-4.25-.67-6.08-.67-2.75,0-3.92,.46-3.92,1.62s1.71,1.5,3.96,1.92c3.42,.62,7.5,1.58,7.5,7s-3.58,7.79-10.04,7.79c-2.33,0-5.87-.21-8-.54l.17-5.83c2.37,.38,5.54,.79,7.5,.79,2.67,0,3.58-.79,3.58-1.92,0-1.33-2.12-1.5-4.58-2-3.12-.62-6.87-1.88-6.87-6.83,0-5.58,3.92-7.62,9.96-7.62,2.25,0,5,.21,7.04,.62Z"/><path class="f" d="M205.22,37.37v-1.17c0-1.54-1-2.67-4.54-2.67-1.92,0-5.25,.42-7.41,1.04v-5.5c3-.62,6.54-.96,9.08-.96,5.92,0,9.54,2.83,9.54,8.54v14.91h-5.67l-.5-2.25h-.17c-2.46,1.75-4.79,2.58-7.04,2.58-4,0-7.17-2.5-7.17-7.46,0-4.21,3.08-7.08,8.92-7.08h4.96Zm0,4.33h-3.79c-2.33,0-3.37,.79-3.37,2.25,0,1.67,1.17,2.46,2.75,2.46s3.21-.5,4.42-1.21v-3.5Z"/><path class="f" d="M228.55,51.58v-15.2c0-1.5-.5-2.25-2.12-2.25-1.5,0-3.54,.83-5.25,1.71v15.75h-6.67V28.63h6.21v2.29h.17c2.71-1.67,5.33-2.79,7.58-2.79,4.04,0,6.75,1.92,6.75,6.96v16.5h-6.67Z"/></g><g><path class="e" d="M250.76,28.33c1.29,0,2.87,.17,4.25,.42v-8.96h5.08v31.78h-4.17c-.17-.29-.33-1.42-.5-1.71-2.38,1.42-4.83,2.12-7.25,2.12-4.67,0-8.91-2.87-8.91-11.21,0-9.5,5.08-12.46,11.5-12.46Zm-1.38,19.33c1.67,0,3.67-.71,5.58-1.79v-12.87c-1.33-.25-2.54-.38-3.67-.38-4.71,0-6.79,2.33-6.79,7.91,0,5,1.92,7.12,4.87,7.12Z"/><path class="e" d="M275.88,37.79v-1.71c0-2.08-1.25-3.5-4.96-3.5-1.96,0-5.17,.38-7.46,1.04v-4.33c2.79-.58,6.25-.96,8.66-.96,5.54,0,8.87,2.71,8.87,8.08v15.16h-4.37l-.38-2.54h-.17c-2.46,1.79-5,2.83-7.46,2.83-3.87,0-7.08-2.29-7.08-7.04,0-4.37,3.17-7.04,8.5-7.04h5.83Zm0,3.62h-5.08c-2.79,0-4.08,1.08-4.08,3.04,0,2.12,1.5,3.17,3.58,3.17,1.96,0,4.08-.87,5.58-1.96v-4.25Z"/><path class="e" d="M294.08,28.33c6.25,0,11.46,3.5,11.46,11.87s-5.21,11.87-11.46,11.87-11.41-3.42-11.41-11.87,5.17-11.87,11.41-11.87Zm.04,19.37c4.33,0,6.12-2.79,6.12-7.5s-1.79-7.46-6.12-7.46-6.21,2.79-6.21,7.46,1.83,7.5,6.21,7.5Z"/></g></g></g></g></svg>